<?xml version="1.0" standalone="no"?>
<!DOCTYPE svg PUBLIC "-//W3C//DTD SVG 20010904//EN"
 "http://www.w3.org/TR/2001/REC-SVG-20010904/DTD/svg10.dtd">
<svg version="1.0" xmlns="http://www.w3.org/2000/svg"
 width="482.000000pt" height="482.000000pt" viewBox="0 0 482.000000 482.000000"
 preserveAspectRatio="xMidYMid meet">
<metadata>
Created by potrace 1.14, written by Peter Selinger 2001-2017
</metadata>
<g transform="translate(0.000000,482.000000) scale(0.100000,-0.100000)"
fill="#000000" stroke="none">
<path d="M0 2410 l0 -2410 2410 0 2410 0 0 2410 0 2410 -2410 0 -2410 0 0
-2410z m3441 1109 c32 -33 59 -64 59 -68 0 -4 -35 -8 -77 -8 -43 0 -166 -9
-273 -21 -107 -12 -232 -22 -277 -22 -116 0 -113 2 -113 -91 l0 -79 309 0 309
0 21 33 c46 72 47 72 78 52 67 -44 114 -88 101 -96 -7 -5 -70 -9 -140 -9
l-128 0 0 -160 0 -160 79 0 79 0 37 50 c20 28 39 50 42 50 3 0 83 -58 132 -97
25 -19 -66 -23 -535 -24 -763 0 -784 0 -784 11 0 6 48 10 125 10 l125 0 0 295
c0 230 3 295 13 295 6 -1 44 -13 82 -28 l70 -28 138 28 c128 27 444 112 456
123 8 9 11 6 72 -56z m-1718 15 c26 -8 21 -21 -13 -33 l-30 -10 2 -508 3 -508
173 -3 172 -2 0 380 0 381 78 -6 c42 -3 87 -8 100 -11 28 -6 24 -28 -6 -32
l-22 -3 0 -435 0 -435 -35 -15 c-19 -7 -53 -14 -75 -14 l-40 0 0 80 0 80 -420
0 -420 0 0 -76 0 -75 -35 -15 c-19 -7 -53 -14 -75 -14 l-40 0 0 481 0 482 98
-6 c53 -4 98 -7 100 -7 1 0 2 -6 2 -14 0 -8 -11 -17 -25 -20 l-25 -6 0 -350 0
-350 170 0 170 0 0 541 0 541 88 -7 c48 -4 95 -9 105 -11z m1390 -714 c34 0
35 -17 2 -30 l-25 -10 2 -202 3 -203 150 0 150 0 3 179 2 179 68 -7 c37 -3 80
-6 96 -6 24 0 27 -2 16 -15 -7 -8 -19 -15 -26 -15 -11 0 -14 -35 -14 -191 l0
-190 -35 -15 c-19 -7 -50 -14 -70 -14 -33 0 -35 2 -35 35 l0 35 -376 0 c-261
0 -373 -3 -369 -11 4 -5 4 -21 1 -34 -7 -26 -54 -45 -113 -45 l-33 0 0 231 0
230 71 -2 c86 -3 119 -8 119 -20 0 -5 -10 -11 -22 -14 -23 -6 -23 -7 -20 -161
l3 -155 144 2 145 2 0 230 0 230 68 -6 c37 -4 79 -7 95 -7z m-1041 -825 c11
-25 13 -25 125 -25 l113 0 0 -30 0 -30 -228 0 -229 0 -6 -143 c-7 -149 -19
-225 -46 -290 l-16 -38 -27 28 -27 28 21 60 c18 50 22 90 26 238 l4 177 115 0
c101 0 114 2 103 15 -10 12 -8 16 11 24 38 15 49 13 61 -14z m846 9 c13 -9 21
-22 18 -30 -4 -10 4 -14 29 -14 32 0 35 -2 35 -30 l0 -30 -90 0 c-73 0 -90 -3
-90 -15 0 -12 15 -15 75 -15 l75 0 0 -104 c0 -102 0 -104 -25 -110 -40 -10
-29 -26 19 -26 43 0 45 -1 41 -27 -2 -26 -6 -28 -44 -25 l-41 2 0 -50 c0 -79
-10 -90 -79 -90 -55 0 -59 2 -65 26 -6 24 -8 25 -25 10 -24 -22 -26 -21 -74
25 -37 36 -40 41 -24 50 31 18 18 29 -28 22 l-45 -6 0 32 0 31 135 0 c128 0
135 1 135 20 0 16 7 20 30 20 20 0 30 5 30 15 0 11 -12 15 -45 15 -38 0 -45
-3 -45 -20 0 -16 -7 -20 -30 -20 -23 0 -30 4 -30 20 0 17 -7 20 -40 20 -33 0
-40 -3 -40 -20 0 -16 -7 -20 -33 -20 l-32 0 0 105 0 105 73 0 c57 0 72 3 72
15 0 12 -16 15 -85 15 l-85 0 0 30 0 30 85 0 c84 0 85 0 85 25 0 21 5 25 30
25 25 0 30 -4 30 -25 0 -22 4 -25 38 -25 35 1 36 1 14 13 -21 12 -21 14 -5 30
21 21 23 21 51 1z m-368 -69 c0 -68 2 -75 20 -75 16 0 20 -7 20 -35 0 -28 -4
-35 -20 -35 -19 0 -20 -7 -20 -180 l0 -180 -35 0 -35 0 0 179 0 180 -27 3
c-23 2 -29 8 -31 36 -3 30 -1 32 27 32 l31 0 0 75 0 75 35 0 35 0 0 -75z
m-509 -45 c16 0 18 -5 13 -25 l-6 -25 116 3 116 2 0 -27 c0 -16 -6 -28 -12
-29 -7 0 -65 0 -129 1 l-117 1 -10 -28 c-5 -15 -13 -36 -17 -45 -6 -15 -1 -18
34 -18 39 0 41 2 41 30 0 27 3 30 30 30 27 0 30 -3 30 -30 l0 -30 70 0 70 0 0
-30 0 -30 -70 0 -70 0 0 -31 0 -31 90 4 90 3 0 -27 0 -27 -87 -3 -88 -3 0 -48
c0 -46 0 -47 -32 -47 -31 0 -32 1 -35 48 l-3 47 -107 3 -108 3 0 27 0 27 110
-3 110 -4 0 31 0 31 -79 0 c-77 0 -79 1 -85 27 -4 14 -3 29 2 32 11 7 42 66
42 81 0 5 -16 10 -35 10 -32 0 -35 2 -35 30 0 29 0 30 45 23 44 -6 46 -5 58
26 7 20 17 29 25 26 8 -3 22 -5 33 -5z"/>
<path d="M2760 3050 l0 -160 200 0 200 0 0 160 0 160 -200 0 -200 0 0 -160z"/>
<path d="M2680 1810 c0 -5 18 -10 40 -10 22 0 40 5 40 10 0 6 -18 10 -40 10
-22 0 -40 -4 -40 -10z"/>
<path d="M2820 1810 c0 -5 20 -10 45 -10 25 0 45 5 45 10 0 6 -20 10 -45 10
-25 0 -45 -4 -45 -10z"/>
<path d="M2680 1750 c0 -5 18 -10 40 -10 22 0 40 5 40 10 0 6 -18 10 -40 10
-22 0 -40 -4 -40 -10z"/>
<path d="M2820 1750 c0 -5 20 -10 45 -10 25 0 45 5 45 10 0 6 -20 10 -45 10
-25 0 -45 -4 -45 -10z"/>
<path d="M2700 1573 c0 -5 18 -23 40 -40 28 -24 49 -33 74 -33 35 0 36 1 36
40 l0 40 -75 0 c-41 0 -75 -3 -75 -7z"/>
</g>
</svg>
